 http://img3.imageshack.us/img3/9477/11heshees.jpg

Country.......: USA
Genre.........: Action, Fantasy
Date release..: 31.08.2011 [World]
Director......: James MacPherson
Writers.......: Jason Faller, Anne K. Black
Duration......: 79 min.
More..........: http://www.imdb.com/title/tt1942934
Trailer.......:

Pilot :
Faced with extinction, two park rangers are forced to defend the national park against hordes of rampaging orcs. Ancient and long forgotten, these orcs are unleashed from the depths of the mountains, and they won't stop until we're all dead.

Cats :
Cal Robertson ... Adam Johnson
Hobart Moss ... Maclain Nelson
Katie ... Renny Richmond
Marge ... Barta Heiner
Dan Whiting ... Michael Behrens
Ezakial Crawford ... Brad Johnson
Marvin ... Stan Ferguson
Miner ... Jake Suazo
Tina ... Jackie Nicolopoulus
Beth ... Kylee Thurman

Data Technical :
!!! SAMPLE !!!
Audio.....: English
Subtitles.: None
Format                           : AVI
Format/Info                      : Audio Video Interleave
File size                        : 700 MiB
Duration                         : 1h 19mn
Overall bit rate                 : 1 224 Kbps
Writing application              : VirtualDubMod 1.5.10.1 (build 2366/release)
Writing library                  : VirtualDubMod build 2366/release
Video
ID                               : 0
Format                           : MPEG-4 Visual
Format profile                   : Advanced Simple@L5
Format settings, BVOP            : Yes
Format settings, QPel            : No
Format settings, GMC             : No warppoints
Format settings, Matrix          : Default (MPEG)
Codec ID                         : XVID
Codec ID/Hint                    : XviD
Duration                         : 1h 19mn
Bit rate                         : 1 087 Kbps
Width                            : 640 pixels
Height                           : 352 pixels
Display aspect ratio             : 16:9
Frame rate                       : 23.976 fps
Color space                      : YUV
Chroma subsampling               : 4:2:0
Bit depth                        : 8 bits
Scan type                        : Progressive
Bits/(Pixel*Frame)               : 0.201
Stream size                      : 621 MiB (89%)
Writing library                  : XviD 1.2.1 (UTC 2008-12-04)
Audio
ID                               : 1
Format                           : MPEG Audio
Format version                   : Version 1
Format profile                   : Layer 3
Mode                             : Joint stereo
Mode extension                   : MS Stereo
Codec ID                         : 55
Codec ID/Hint                    : MP3
Duration                         : 1h 19mn
Bit rate mode                    : Constant
Bit rate                         : 128 Kbps
Channel(s)                       : 2 channels
Sampling rate                    : 48.0 KHz
Stream size                      : 73.2 MiB (10%)
Alignment                        : Aligned on interleaves
Interleave, duration             : 42 ms (1.00 video frame)
Interleave, preload duration     : 504 ms
Writing library                  : LAME3.98r
Encoding settings                : -m j -V 4 -q 2 -lowpass 17 -b 128

Screen : 
http://img708.imageshack.us/img708/5164/orcs2011s1.jpg 
http://img38.imageshack.us/img38/844/orcs2011s2.jpg 
http://img402.imageshack.us/img402/4448/orcs2011s3.jpg 
http://img808.imageshack.us/img808/3348/orcs2011s4.jpg 
http://img705.imageshack.us/img705/1593/orcs2011s5.jpg